<svg width="29" height="29" viewBox="0 0 29 29" fill="none" xmlns="http://www.w3.org/2000/svg">
<mask id="mask0_205_38783" style="mask-type:luminance" maskUnits="userSpaceOnUse" x="0" y="0" width="29" height="29">
<path d="M28.3667 0.304688H0V28.7989H28.3667V0.304688Z" fill="white"/>
</mask>
<g mask="url(#mask0_205_38783)">
<path d="M28.1694 22.272C28.1695 23.392 27.8664 24.4911 27.2924 25.4529C26.7184 26.4146 25.8948 27.203 24.909 27.7346C23.9232 28.2661 22.8119 28.521 21.693 28.4721C20.574 28.4232 19.4892 28.0723 18.5535 27.4568C18.1655 27.1692 17.7951 26.8587 17.4441 26.5269C16.5501 25.7731 15.2971 25.5121 14.0441 25.5121C12.9151 25.5121 11.7764 25.6915 10.9411 26.3278C10.5398 26.793 10.0713 27.1955 9.55105 27.5221C9.54032 27.527 9.5304 27.5336 9.52169 27.5416V27.5449C9.51258 27.5515 9.50273 27.557 9.49232 27.5612C9.48579 27.5677 9.48253 27.5677 9.48253 27.5677C8.50982 28.1649 7.39034 28.4801 6.24896 28.4781H6.20654C4.93403 28.4777 3.69238 28.0863 2.64972 27.3568C1.60706 26.6273 0.813766 25.595 0.377234 24.3997C-0.0592957 23.2044 -0.117967 21.9038 0.209169 20.6741C0.536305 19.4443 1.23344 18.3449 2.20619 17.5244C2.55378 17.0484 2.78814 16.4994 2.8914 15.9191C2.89228 15.8972 2.89446 15.8754 2.89792 15.8538C2.98278 15.3855 3.0232 14.9103 3.01865 14.4344C3.01865 13.188 2.76741 11.9448 2.02346 11.0606C1.67151 10.6937 1.34345 10.3046 1.04131 9.89567C0.432697 8.95852 0.0883075 7.87444 0.0444684 6.75787C0.000629194 5.64129 0.258964 4.53356 0.79223 3.55155C1.3255 2.56955 2.11392 1.74969 3.07433 1.17844C4.03473 0.607197 5.1315 0.305749 6.24896 0.305908H6.31748C7.95186 0.324719 9.51291 0.987226 10.6619 2.14968C11.811 3.31214 12.4553 4.8808 12.4551 6.51527V6.54463C12.4499 7.74667 12.095 8.92123 11.4338 9.92504C11.1455 10.3125 10.835 10.6829 10.5038 11.0344C9.75009 11.9285 9.48906 13.1782 9.48906 14.4344C9.48654 14.8361 9.51382 15.2375 9.57063 15.6352C9.6526 16.3633 9.93246 17.0551 10.3798 17.6354C10.5169 17.8018 10.6637 17.9617 10.8105 18.1215C10.8301 18.1346 10.8464 18.1509 10.8628 18.164C11.6948 18.859 12.8792 19.0417 14.0441 19.0417C14.1812 19.0417 14.3215 19.0384 14.4585 19.0319C15.5581 18.9797 16.6284 18.7089 17.4147 18.0432C17.7829 17.6925 18.1731 17.3655 18.5829 17.0643C19.3526 16.5646 20.2235 16.2417 21.133 16.1187C22.0425 15.9957 22.9679 16.0757 23.8427 16.353C23.8499 16.3549 23.8565 16.3582 23.8623 16.3628C25.1137 16.7643 26.2053 17.553 26.9794 18.6151C27.7535 19.6772 28.1703 20.9577 28.1694 22.272Z" fill="#7BC67E"/>
<path d="M28.1695 6.51408C28.1696 7.72802 27.8138 8.91537 27.1462 9.92926C26.4786 10.9431 25.5284 11.739 24.4131 12.2185C23.2979 12.698 22.0666 12.8401 20.8714 12.6271C19.6763 12.4141 18.5699 11.8554 17.6889 11.0202L17.6791 11.0104C17.0829 10.4436 16.6058 9.76341 16.2758 9.0098C15.9458 8.25622 15.7695 7.44434 15.7572 6.62175V6.60968C15.7545 6.57823 15.7535 6.54664 15.754 6.51506C15.754 5.43349 16.0364 4.37065 16.5734 3.43183C17.1104 2.493 17.8834 1.71072 18.8157 1.16248C19.748 0.614233 20.8074 0.319034 21.8888 0.306108C22.9703 0.293181 24.0364 0.562976 24.9816 1.08878C25.0044 1.1051 25.0142 1.11163 25.0142 1.11163C26.098 1.72241 26.9725 2.64575 27.5234 3.76114C27.5266 3.76835 27.531 3.77497 27.5365 3.78071C27.9538 4.63139 28.1704 5.56652 28.1695 6.51408Z"/>
<g style="mix-blend-mode:screen" opacity="0.6">
<path d="M6.98591 0.392783H6.75097C6.59762 0.382994 6.3757 0.402578 6.09509 0.418892C5.75996 0.453233 5.4275 0.509914 5.0999 0.588561C4.68012 0.690797 4.2714 0.833962 3.87956 1.016C3.1238 1.36431 2.44834 1.86536 1.89576 2.48758C1.34317 3.10981 0.925428 3.83972 0.668841 4.63134C0.476272 5.21466 0.37716 5.82473 0.375177 6.43901C0.361985 7.05231 0.442298 7.66408 0.613364 8.2532C0.778045 8.82167 1.03013 9.36107 1.36058 9.85204C1.68361 10.3186 2.1339 10.72 2.45693 11.2355C2.74484 11.7064 2.93978 12.2281 3.0312 12.7724C3.11341 13.2179 3.15276 13.6702 3.14867 14.1232C3.15084 14.4695 3.12575 14.8153 3.07362 15.1576C3.04293 15.3767 2.99825 15.5935 2.93984 15.8069C2.90721 15.9146 2.88438 15.9831 2.87459 16.0157C2.87785 15.9994 2.88437 15.9668 2.8909 15.9178C2.89178 15.896 2.89395 15.8742 2.89742 15.8526C2.98228 15.3843 3.02271 14.9091 3.01816 14.4332C3.01816 13.1868 2.76691 11.9436 2.02296 11.0593C1.671 10.6924 1.34296 10.3033 1.04082 9.89446C0.432203 8.95728 0.0878042 7.87323 0.043965 6.75666C0.000125777 5.64005 0.258471 4.53231 0.791739 3.55033C1.325 2.56833 2.11343 1.74846 3.07383 1.17721C4.03422 0.605966 5.13102 0.304528 6.24845 0.304688H6.31697C6.46354 0.314317 6.60949 0.331745 6.75421 0.356896C6.9043 0.379736 6.98591 0.392783 6.98591 0.392783Z" fill="#994444"/>
</g>
<g style="mix-blend-mode:multiply" opacity="0.25">
<path d="M9.57075 15.648L9.53812 15.5403C9.51691 15.4702 9.48428 15.3674 9.45394 15.2326C9.36505 14.8607 9.31206 14.4812 9.29568 14.0991C9.26655 13.5492 9.31934 12.9981 9.45231 12.4637C9.5268 12.1531 9.63624 11.852 9.7786 11.5661C9.93418 11.2766 10.1182 11.0033 10.3281 10.7503C10.5346 10.5027 10.7611 10.2785 10.9334 10.0628C11.1121 9.84393 11.2772 9.61422 11.4277 9.37502C11.5672 9.1471 11.6945 8.91181 11.8088 8.67022C11.9126 8.44182 12.0046 8.21341 12.0803 8.00165C12.2005 7.65359 12.2976 7.2979 12.3707 6.93695C12.4245 6.672 12.449 6.51636 12.449 6.51636C12.4739 6.65833 12.491 6.80157 12.5002 6.94543C12.5267 7.32896 12.5078 7.71428 12.4438 8.09333C12.3553 8.63841 12.1813 9.16612 11.9282 9.65693C11.7861 9.93699 11.6186 10.2035 11.428 10.4531C11.2251 10.7174 11.0153 10.934 10.8309 11.166C10.642 11.382 10.4752 11.6164 10.333 11.8656C10.2007 12.1093 10.0898 12.364 10.0015 12.6269C9.84131 13.1106 9.72962 13.609 9.66799 14.1148C9.61154 14.5657 9.59098 14.9501 9.58152 15.2209L9.57075 15.648Z" fill="#850101"/>
</g>
<g style="mix-blend-mode:screen" opacity="0.6">
<path d="M23.8625 16.3617C23.8266 16.3584 23.6699 16.3323 23.4285 16.303C23.2882 16.2866 23.1218 16.2736 22.9293 16.2638C22.7163 16.2512 22.5028 16.2501 22.2897 16.2605C22.1723 16.2671 22.0287 16.2703 21.9243 16.2801C21.7938 16.2932 21.6632 16.303 21.536 16.3193C21.2615 16.3587 20.9893 16.412 20.7203 16.4792C20.4355 16.551 20.1554 16.6403 19.8817 16.7467C19.6008 16.8553 19.3291 16.9863 19.0692 17.1383C18.8087 17.2856 18.5619 17.456 18.3318 17.6473C18.1034 17.8431 17.8652 18.0486 17.6172 18.2444C17.3739 18.4376 17.1063 18.5978 16.821 18.7208C16.5712 18.8286 16.311 18.9106 16.0445 18.9655C15.824 19.0121 15.6004 19.0427 15.3756 19.0569C15.2029 19.0693 15.0296 19.0704 14.8568 19.0601C14.5729 19.0504 14.413 19.0406 14.413 19.0406L14.4587 19.0308C15.5583 18.9786 16.6285 18.7077 17.4149 18.0421C17.7831 17.6913 18.1732 17.3644 18.583 17.0632C19.3528 16.5635 20.2237 16.2405 21.1331 16.1176C22.0426 15.9946 22.9681 16.0746 23.8429 16.3519C23.85 16.3538 23.8567 16.3571 23.8625 16.3617Z" fill="#994444"/>
</g>
<g style="mix-blend-mode:multiply" opacity="0.25">
<path d="M9.48035 27.5672C9.48035 27.5672 9.57465 27.5046 9.74138 27.376C9.98153 27.1897 10.2094 26.988 10.4233 26.772C10.5656 26.635 10.6938 26.4683 10.8756 26.2934C11.072 26.1124 11.2926 25.9596 11.5311 25.8395C12.1051 25.5674 12.7219 25.3971 13.3541 25.336C14.1012 25.2438 14.8581 25.2707 15.5967 25.4156C15.8003 25.4553 16.0016 25.5059 16.1997 25.5674C16.404 25.6317 16.6023 25.7135 16.7926 25.8118C17.1744 26.0165 17.535 26.2584 17.8694 26.5339C18.2058 26.7975 18.5324 27.0667 18.8789 27.2895C19.0501 27.4017 19.2296 27.5008 19.4157 27.5862C19.6053 27.6763 19.7999 27.7559 19.9984 27.8243C20.8064 28.1045 21.6653 28.2067 22.5164 28.1239L22.6757 28.1076L22.8326 28.0844C22.9439 28.0674 23.061 28.0518 23.1563 28.0283C23.363 27.986 23.5673 27.933 23.7684 27.8694C24.1731 27.7401 24.5622 27.5664 24.9287 27.3515C25.6278 26.9517 26.2392 26.4153 26.7267 25.7742C27.2141 25.1332 27.5675 24.4005 27.7658 23.6201C27.9362 22.9364 27.984 22.2279 27.9071 21.5275C27.8424 20.929 27.6933 20.3426 27.4643 19.7858C27.2885 19.3512 27.064 18.938 26.7951 18.554C26.6881 18.3909 26.5762 18.2551 26.4816 18.1351C26.4041 18.0312 26.3201 17.9325 26.23 17.8394L26.0091 17.6016L26.2548 17.8143C26.3556 17.8975 26.4508 17.9873 26.5396 18.0832C26.6675 18.2061 26.7867 18.3378 26.8963 18.4773C27.2041 18.8486 27.4688 19.2537 27.6852 19.6846C28.3226 20.9307 28.5181 22.3561 28.2399 23.7277C28.0672 24.562 27.726 25.3522 27.2372 26.05C26.4362 27.1901 25.2891 28.0419 23.9662 28.4792C23.7387 28.5536 23.5073 28.6156 23.2731 28.6649C23.1507 28.6946 23.0424 28.7089 22.9308 28.7269L22.753 28.7546L22.5758 28.7732C21.6319 28.8571 20.681 28.736 19.7883 28.4182C19.3473 28.2663 18.9285 28.0565 18.5428 27.7943C18.1627 27.5352 17.8322 27.2468 17.5091 26.9805C17.207 26.7203 16.8826 26.4871 16.5397 26.2836C16.376 26.1895 16.2042 26.1104 16.0264 26.047C15.8511 25.9856 15.6729 25.933 15.4923 25.8894C14.8034 25.7267 14.0943 25.6655 13.3877 25.7077C12.7882 25.7327 12.1963 25.8511 11.6332 26.0584C11.4037 26.1517 11.1882 26.2764 10.993 26.4291C10.8188 26.5704 10.6635 26.7391 10.5098 26.8644C10.2758 27.065 10.0256 27.2459 9.76161 27.4051C9.58084 27.5153 9.48035 27.5672 9.48035 27.5672Z" fill="#850101"/>
</g>
<g style="mix-blend-mode:multiply" opacity="0.25">
<path d="M27.4754 3.68506L27.5781 3.8531C27.6738 4.01351 27.7609 4.17884 27.8392 4.34841C28.1227 4.96269 28.2957 5.62207 28.3505 6.29639L28.3613 6.45627L28.3639 6.49673C28.3647 6.5076 28.3647 6.5185 28.3639 6.52936V6.54894V6.62855C28.3619 6.73515 28.3599 6.84391 28.358 6.95485C28.356 7.06579 28.3532 7.17803 28.3495 7.29158C28.3413 7.40676 28.3143 7.52978 28.297 7.65051C28.2242 8.16279 28.0827 8.66293 27.8764 9.13743C27.7723 9.38906 27.648 9.63183 27.5047 9.86343C27.3679 10.1072 27.2081 10.3373 27.0274 10.5506L26.7575 10.8785C26.6613 10.9826 26.5546 11.0776 26.4531 11.1777C26.3516 11.2779 26.2495 11.3787 26.1405 11.4714L25.7989 11.7324C25.3382 12.0689 24.8359 12.3443 24.3044 12.5518C24.0443 12.653 23.7778 12.7372 23.5067 12.8037C23.2394 12.8722 22.9657 12.897 22.7027 12.9433C22.4367 12.9707 22.1718 12.9697 21.9153 12.9759C21.6585 12.9691 21.4086 12.928 21.1648 12.9058C20.7127 12.8376 20.2707 12.7139 19.8489 12.5374C19.4894 12.4058 19.147 12.2314 18.8292 12.0179C18.5841 11.8582 18.3525 11.6787 18.1365 11.4812C17.9982 11.356 17.8674 11.2228 17.745 11.0821L17.6144 10.9327C18.3043 11.5099 19.1075 11.9361 19.9722 12.1837C20.1671 12.2501 20.3676 12.2989 20.5713 12.3292C20.7863 12.371 21.0032 12.4019 21.2213 12.4219C21.4464 12.4255 21.6781 12.4487 21.9117 12.4382C22.146 12.4108 22.3868 12.4098 22.6276 12.373C22.8658 12.3188 23.1125 12.2881 23.3523 12.215L23.7112 12.0966C23.8345 12.0639 23.9547 12.0202 24.0702 11.9661C24.5484 11.7712 24.9996 11.5156 25.4125 11.2055L25.7258 10.9748C25.8237 10.8926 25.9157 10.7996 26.0113 10.7138C26.1069 10.6279 26.2031 10.5405 26.2912 10.4475L26.5389 10.1538C26.704 9.96285 26.8545 9.75977 26.9892 9.54627C27.1283 9.34178 27.2504 9.12627 27.3543 8.90184C27.4616 8.68756 27.5531 8.46575 27.6281 8.23816C27.7095 8.02597 27.7722 7.80706 27.8154 7.58394C27.8392 7.47529 27.8725 7.37348 27.8881 7.26254C27.9038 7.1516 27.9119 7.0374 27.9234 6.92776C27.9348 6.81813 27.9482 6.71013 27.9602 6.60408L27.9694 6.52512L27.9717 6.50521C27.9717 6.52479 27.9717 6.49902 27.9717 6.49902V6.46117L27.9762 6.31074C27.9835 5.66286 27.8961 5.01735 27.7168 4.39475C27.6499 4.15378 27.5693 3.91679 27.4754 3.68506Z" fill="#850101"/>
</g>
<g style="mix-blend-mode:screen" opacity="0.6">
<path d="M25.0136 1.11065C25.0136 1.11065 24.8146 1.04212 24.4719 0.911605C24.3088 0.843083 24.0869 0.800668 23.8487 0.732146C23.728 0.706043 23.5975 0.679943 23.4604 0.653839C23.3234 0.634261 23.1766 0.611421 23.0265 0.591844C22.8764 0.582055 22.7165 0.569001 22.5533 0.559212C22.3902 0.562475 22.2238 0.549423 22.0508 0.559212C21.6902 0.574878 21.3313 0.618513 20.9773 0.689728C20.7946 0.719095 20.6119 0.777827 20.4259 0.823509C20.2464 0.888767 20.0572 0.937711 19.8777 1.01602C19.5099 1.15723 19.1569 1.33428 18.8238 1.54461C18.6639 1.65555 18.4845 1.75671 18.3409 1.87744L18.1125 2.0569L17.8841 2.26247C17.0961 2.98878 16.5084 3.90572 16.1776 4.92503C16.0212 5.39541 15.9151 5.88103 15.8611 6.37377C15.8415 6.55323 15.8252 6.70006 15.8219 6.79795C15.8186 6.89584 15.8121 6.94805 15.8121 6.94805C15.8121 6.94805 15.8023 6.89584 15.786 6.79795C15.7762 6.75227 15.7697 6.69028 15.7566 6.62175V6.60968C15.7539 6.57823 15.7528 6.54664 15.7534 6.51506C15.7533 5.43349 16.0358 4.37065 16.5728 3.43183C17.1098 2.493 17.8827 1.71072 18.8151 1.16248C19.7474 0.614233 20.8067 0.319034 21.8882 0.306108C22.9697 0.293181 24.0358 0.562976 24.981 1.08878C25.0045 1.10412 25.0136 1.11065 25.0136 1.11065Z" fill="#994444"/>
</g>
</g>
</svg>
